<?xml version="1.0" encoding="iso-8859-1"?>
<!-- Generator: Adobe Illustrator 19.0.0, SVG Export Plug-In . SVG Version: 6.00 Build 0)  -->
<svg version="1.1" id="Layer_1" xmlns="http://www.w3.org/2000/svg" xmlns:xlink="http://www.w3.org/1999/xlink" x="0px" y="0px"
	 viewBox="0 0 471.1 471.1" style="enable-background:new 0 0 471.1 471.1;" xml:space="preserve">
<g transform="translate(0 -540.36)">
	<g>
		<g>
			<path d="M197.95,877.26v-221.8c0-5.5-4.5-10-10-10s-10,4.5-10,10v221.8c-19.9,4.6-34.7,22.3-34.7,43.6
				c0,24.6,20.1,44.7,44.7,44.7c24.6,0,44.7-20,44.7-44.7C232.75,899.56,217.85,881.76,197.95,877.26z M187.95,945.46
				c-13.6,0-24.7-11.1-24.7-24.7c0-13.6,11.1-24.7,24.7-24.7c13.6,0,24.7,11.1,24.7,24.7C212.75,934.46,201.65,945.46,187.95,945.46
				z"/>
			<polygon points="187.95,1011.46 187.95,1011.46 187.95,1011.46 			"/>
			<path d="M244.25,846.36v-250c0-30.9-25.2-56-56.3-56c-31.1,0-56.3,25.1-56.3,56v250c-29.9,23.6-42.3,63.4-31,100.8
				c5.8,18.7,17.2,34.7,33,46.4c15.9,11.7,34.6,17.9,54.3,17.9s38.5-6.2,54.3-17.9c15.8-11.7,27.2-27.7,33-46.5
				C286.55,909.76,274.05,869.96,244.25,846.36z M255.95,941.26c-9.3,30-36.6,50.2-68.1,50.2s-58.8-20.1-68.1-50.1
				c-9.3-30.8,1.8-63.6,27.6-81.7c2.7-1.9,4.3-4.9,4.3-8.2v-255c0-19.5,16.7-36,36.3-36v0c19.7,0,36.3,16.5,36.1,35.9v255
				c0,3.3,1.6,6.3,4.3,8.2C254.15,877.66,265.25,910.56,255.95,941.26z"/>
			<path d="M444.55,668.06h-11.4c-13.2,0-25.7-6.1-31.7-15.4c-0.1-0.1-0.2-0.3-0.3-0.4c-6.3-8.8-6.2-19.8,0.2-29.4l0.1-0.1
				c6.2-9.5,18-15.4,30.9-15.4h12.2c5.5,0,10-4.5,10-10s-4.5-10-10-10h-12.2c-19.6,0-37.8,9.3-47.6,24.4c-11,16.5-11,36.3,0.1,51.9
				c9.7,14.8,28.6,24.3,48.4,24.3h11.3v0c5.5,0,10-4.4,10-9.9S450.05,668.06,444.55,668.06z"/>
			<path d="M328.45,540.46c-18.5,0-33.6,15-33.6,33.4v11.3c0,18.4,15.1,33.4,33.6,33.4s33.6-15,33.6-33.4v-11.3
				C362.05,555.46,346.95,540.46,328.45,540.46z M342.05,585.16c0,7.5-6,13.4-13.6,13.4c-7.6,0-13.6-5.9-13.6-13.4v-11.3
				c0-7.5,6-13.4,13.6-13.4c7.6,0,13.6,5.9,13.6,13.4V585.16z"/>
			<path d="M84.15,841.46h-57.6c-5.5,0-10,4.5-10,10s4.5,10,10,10h57.6c5.5,0,10-4.5,10-10S89.65,841.46,84.15,841.46z"/>
			<path d="M84.15,702.66h-34.9c-5.5,0-10,4.5-10,10s4.5,10,10,10h34.9c5.5,0,10-4.5,10-10S89.65,702.66,84.15,702.66z"/>
			<path d="M84.15,656.66h-57.6c-5.5,0-10,4.5-10,10s4.5,10,10,10h57.6c5.5,0,10-4.5,10-10S89.65,656.66,84.15,656.66z"/>
			<path d="M84.15,609.86h-34.9c-5.5,0-10,4.5-10,10s4.5,10,10,10h34.9c5.5,0,10-4.5,10-10S89.65,609.86,84.15,609.86z"/>
			<path d="M84.15,563.86h-57.6c-5.5,0-10,4.5-10,10s4.5,10,10,10h57.6c5.5,0,10-4.5,10-10S89.65,563.86,84.15,563.86z"/>
			<path d="M84.15,795.46h-34.9c-5.5,0-10,4.5-10,10s4.5,10,10,10h34.9c5.5,0,10-4.5,10-10S89.65,795.46,84.15,795.46z"/>
			<path d="M84.15,748.66h-57.6c-5.5,0-10,4.5-10,10s4.5,10,10,10h57.6c5.5,0,10-4.5,10-10S89.65,748.66,84.15,748.66z"/>
		</g>
	</g>
</g>
<g>
</g>
<g>
</g>
<g>
</g>
<g>
</g>
<g>
</g>
<g>
</g>
<g>
</g>
<g>
</g>
<g>
</g>
<g>
</g>
<g>
</g>
<g>
</g>
<g>
</g>
<g>
</g>
<g>
</g>
</svg>
